<svg width="205" height="127" viewBox="0 0 205 127" fill="none" xmlns="http://www.w3.org/2000/svg">
<circle cx="5.3913" cy="122.484" r="4.5" fill="#D9D9D9"/>
<circle cx="44.3913" cy="122.484" r="4.5" fill="#D9D9D9"/>
<circle cx="83.3913" cy="122.484" r="4.5" fill="#D9D9D9"/>
<circle cx="122.391" cy="122.484" r="4.5" fill="#D9D9D9"/>
<circle cx="161.391" cy="122.484" r="4.5" fill="#D9D9D9"/>
<circle cx="200.391" cy="122.484" r="4.5" fill="#D9D9D9"/>
<circle cx="5.3913" cy="83.4836" r="4.5" fill="#D9D9D9"/>
<circle cx="44.3913" cy="83.4836" r="4.5" fill="#D9D9D9"/>
<circle cx="83.3913" cy="83.4836" r="4.5" fill="#D9D9D9"/>
<circle cx="122.391" cy="83.4836" r="4.5" fill="#D9D9D9"/>
<circle cx="161.391" cy="83.4836" r="4.5" fill="#D9D9D9"/>
<circle cx="200.391" cy="83.4836" r="4.5" fill="#D9D9D9"/>
<circle cx="5.3913" cy="44.4836" r="4.5" fill="#D9D9D9"/>
<circle cx="44.3913" cy="44.4836" r="4.5" fill="#D9D9D9"/>
<circle cx="83.3913" cy="44.4836" r="4.5" fill="#D9D9D9"/>
<circle cx="122.391" cy="44.4836" r="4.5" fill="#D9D9D9"/>
<circle cx="161.391" cy="44.4836" r="4.5" fill="#D9D9D9"/>
<circle cx="200.391" cy="44.4836" r="4.5" fill="#D9D9D9"/>
<circle cx="5.3913" cy="5.48364" r="4.5" fill="#D9D9D9"/>
<circle cx="44.3913" cy="5.48364" r="4.5" fill="#D9D9D9"/>
<circle cx="83.3913" cy="5.48364" r="4.5" fill="#D9D9D9"/>
<circle cx="122.391" cy="5.48364" r="4.5" fill="#D9D9D9"/>
<circle cx="161.391" cy="5.48364" r="4.5" fill="#D9D9D9"/>
<circle cx="200.391" cy="5.48364" r="4.5" fill="#D9D9D9"/>
</svg>
