<svg width="219" height="125" viewBox="0 0 219 125" fill="none" xmlns="http://www.w3.org/2000/svg">
<path d="M210.552 19.902C204.347 21.742 198.132 23.582 191.927 25.422C191.049 25.682 191.423 27.052 192.31 26.782C198.515 24.942 204.73 23.102 210.935 21.262C211.803 21.012 211.43 19.642 210.552 19.902Z" fill="#00477C"/>
<path d="M191.755 25.2619C177.015 20.3019 162.264 15.3419 147.524 10.3819C146.737 10.1219 146.303 11.2619 146.979 11.6719C158.763 18.7919 170.538 25.9219 182.322 33.0419C183.109 33.5219 183.825 32.2919 183.038 31.8219C171.254 24.7019 159.48 17.5719 147.695 10.4519C147.514 10.8819 147.332 11.3119 147.15 11.7419C161.891 16.7019 176.642 21.6619 191.382 26.6219C192.25 26.9219 192.623 25.5519 191.755 25.2619Z" fill="#00477C"/>
<path d="M211.43 17.9419C185.419 12.6119 159.308 7.77193 133.116 3.42193C132.218 3.27193 131.835 4.63192 132.733 4.78192C158.925 9.13192 185.036 13.9719 211.046 19.3019C211.954 19.4819 212.338 18.1219 211.43 17.9419Z" fill="#00477C"/>
<path d="M182.766 32.352C175.572 32.812 168.399 33.502 161.245 34.422C160.347 34.542 160.337 35.952 161.245 35.832C168.399 34.912 175.562 34.222 182.766 33.762C183.674 33.702 183.684 32.292 182.766 32.352Z" fill="#00477C"/>
<path d="M130.836 4.89206C141.046 16.2821 151.852 27.092 163.263 37.312C163.939 37.922 164.958 36.922 164.272 36.312C152.861 26.102 142.055 15.2921 131.845 3.89206C131.24 3.21206 130.231 4.21206 130.836 4.89206Z" fill="#00477C"/>
<path d="M192.906 27.2919C192.926 33.8619 193.299 40.4019 194.056 46.9319C194.157 47.8219 195.589 47.8319 195.478 46.9319C194.732 40.4019 194.348 33.8619 194.328 27.2919C194.328 26.3819 192.906 26.3819 192.906 27.2919Z" fill="#00477C"/>
<path d="M182.978 32.7918C186.469 37.7418 189.949 42.7018 193.44 47.6518C193.965 48.3918 195.196 47.6918 194.671 46.9418C191.18 41.9918 187.7 37.0318 184.209 32.0818C183.694 31.3418 182.453 32.0418 182.978 32.7918Z" fill="#00477C"/>
<path d="M194.136 46.7719C187.851 41.9519 181.384 37.3919 174.725 33.1019C173.948 32.6019 173.242 33.8319 174.008 34.3219C180.566 38.5519 186.943 43.0319 193.138 47.7719C193.854 48.3219 194.863 47.3319 194.136 46.7719Z" fill="#00477C"/>
<path d="M1.91485 123.362C0.0180563 107.252 7.48414 91.0121 18.9759 79.4721C30.4676 67.9321 45.6117 60.5921 61.1089 55.4121C66.7186 53.5421 72.4695 51.8921 77.5747 48.9121C87.0385 43.3921 93.3847 33.7321 97.4104 23.6121C100.447 15.9721 101.103 5.06212 93.5361 1.72212C88.2493 -0.607881 81.7416 2.87213 79.1789 8.01213C76.6263 13.1521 77.2014 19.3021 78.7855 24.8121C83.2248 40.2621 94.9587 52.9321 108.741 61.3721C122.533 69.8121 138.323 74.4621 154.123 78.0621C164.777 80.4921 175.693 82.5021 186.58 81.5521C197.466 80.6021 208.443 76.3821 215.536 68.1321C216.919 66.5221 218.21 64.5221 217.816 62.4421C217.504 60.7621 216.182 59.4821 214.921 58.3221C210.35 54.0921 205.77 49.8521 201.199 45.6221" stroke="#00477C" stroke-width="1.5" stroke-miterlimit="10" stroke-linecap="round" stroke-dasharray="9.74 9.74"/>
<path d="M161.306 15.552C162.375 17.572 163.435 19.582 164.504 21.602C164.928 22.412 166.159 21.692 165.735 20.892C164.666 18.872 163.606 16.862 162.537 14.842C162.113 14.032 160.882 14.752 161.306 15.552Z" fill="#00477C"/>
<path d="M166.714 16.0323C168.177 19.3523 169.64 22.6623 171.103 25.9823C171.466 26.8123 172.697 26.0923 172.334 25.2723C170.871 21.9523 169.408 18.6423 167.945 15.3223C167.581 14.4823 166.351 15.2023 166.714 16.0323Z" fill="#00477C"/>
<path d="M175.068 20.8622C176.45 23.8522 177.822 26.8522 179.204 29.8422C179.588 30.6722 180.819 29.9522 180.435 29.1322C179.053 26.1422 177.681 23.1422 176.299 20.1522C175.915 19.3222 174.684 20.0422 175.068 20.8622Z" fill="#00477C"/>
<path d="M181.576 23.3723C183.079 27.8623 184.693 32.3122 186.408 36.7222C186.731 37.5622 188.113 37.2023 187.78 36.3423C186.065 31.9323 184.451 27.4823 182.948 22.9923C182.665 22.1323 181.283 22.5023 181.576 23.3723Z" fill="#00477C"/>
<path d="M186.872 27.0321C188.265 31.2321 189.647 35.4321 191.039 39.6321C191.322 40.4921 192.704 40.1221 192.411 39.2521C191.019 35.0521 189.637 30.8521 188.245 26.6521C187.962 25.8021 186.58 26.1721 186.872 27.0321Z" fill="#00477C"/>
<path d="M191.806 27.5022C192.442 29.6622 192.855 31.8522 193.027 34.1022C193.098 35.0022 194.52 35.0122 194.45 34.1022C194.268 31.7322 193.844 29.4122 193.178 27.1322C192.926 26.2622 191.544 26.6322 191.806 27.5022Z" fill="#00477C"/>
</svg>
